<?xml version="1.0" encoding="UTF-8"?>
<mxfile host="app.diagrams.net">
  <diagram name="Page-1">
    <mxGraphModel dx="1108" dy="562" grid="1" gridSize="10" guides="1" tooltips="1" connect="1" arrows="1" fold="1" page="1" pageScale="1" pageWidth="827" pageHeight="1169" math="0" shadow="0">
      <root>
        <mxCell id="0" value="" style="group" vertex="1" connectable="0">
          <mxGeometry x="0" y="0" width="100%" height="100%" as="geometry"/>
        </mxCell>
        <mxCell id="1" value="" style="group" vertex="1" connectable="0">
          <mxGeometry x="0" y="0" width="100%" height="100%" as="geometry"/>
        </mxCell>
        <!-- ApplicationLauncher -->
        <mxCell id="2" value="ApplicationLauncher" style="swimlane;html=1;whiteSpace=wrap;rounded=0;whiteSpace=wrap;html=1;" vertex="1" connectable="0">
          <mxGeometry x="20" y="20" width="120" height="60" as="geometry"/>
        </mxCell>
        <mxCell id="3" value="+ main(String[] args)" style="text;html=1;" vertex="1">
          <mxGeometry x="0" y="0.33" width="100" height="100%" as="geometry"/>
        </mxCell>
        
        <!-- DiningTable -->
        <mxCell id="4" value="DiningTable" style="swimlane;html=1;whiteSpace=wrap;rounded=0;whiteSpace=wrap;html=1;" vertex="1" connectable="0">
          <mxGeometry x="200" y="20" width="160" height="240" as="geometry"/>
        </mxCell>
        <mxCell id="5" value="+ serverSocket: ServerSocket" style="text;html=1;" vertex="1">
          <mxGeometry x="0" y="0.15" width="100" height="100%" as="geometry"/>
        </mxCell>
        <mxCell id="6" value="+ SERVICE_PORT: int" style="text;html=1;" vertex="1">
          <mxGeometry x="0" y="0.25" width="100" height="100%" as="geometry"/>
        </mxCell>
        <mxCell id="7" value="+ SEAT_COUNT: int" style="text;html=1;" vertex="1">
          <mxGeometry x="0" y="0.35" width="100" height="100%" as="geometry"/>
        </mxCell>
        <mxCell id="8" value="+ initializeService()" style="text;html=1;" vertex="1">
          <mxGeometry x="0" y="0.50" width="100" height="100%" as="geometry"/>
        </mxCell>
        <mxCell id="9" value="+ findAvailableSeat(): TableSeat" style="text;html=1;" vertex="1">
          <mxGeometry x="0" y="0.65" width="100" height="100%" as="geometry"/>
        </mxCell>
        
        <!-- Hashi -->
        <mxCell id="10" value="Hashi" style="swimlane;html=1;whiteSpace=wrap;rounded=0;whiteSpace=wrap;html=1;" vertex="1" connectable="0">
          <mxGeometry x="400" y="120" width="120" height="120" as="geometry"/>
        </mxCell>
        <mxCell id="11" value="+ identifier: int" style="text;html=1;" vertex="1">
          <mxGeometry x="0" y="0.25" width="100" height="100%" as="geometry"/>
        </mxCell>
        <mxCell id="12" value="+ acquire(seat: TableSeat)" style="text;html=1;" vertex="1">
          <mxGeometry x="0" y="0.50" width="100" height="100%" as="geometry"/>
        </mxCell>
        
        <!-- Philosopher -->
        <mxCell id="13" value="Philosopher" style="swimlane;html=1;whiteSpace=wrap;rounded=0;whiteSpace=wrap;html=1;" vertex="1" connectable="0">
          <mxGeometry x="600" y="20" width="160" height="180" as="geometry"/>
        </mxCell>
        <mxCell id="14" value="+ id: int" style="text;html=1;" vertex="1">
          <mxGeometry x="0" y="0.15" width="100" height="100%" as="geometry"/>
        </mxCell>
        <mxCell id="15" value="+ mealsConsumed: int" style="text;html=1;" vertex="1">
          <mxGeometry x="0" y="0.25" width="100" height="100%" as="geometry"/>
        </mxCell>
        <mxCell id="16" value="+ assignSeat(seat: TableSeat)" style="text;html=1;" vertex="1">
          <mxGeometry x="0" y="0.50" width="100" height="100%" as="geometry"/>
        </mxCell>
        
        <!-- SessionManager -->
        <mxCell id="17" value="SessionManager" style="swimlane;html=1;whiteSpace=wrap;rounded=0;whiteSpace=wrap;html=1;" vertex="1" connectable="0">
          <mxGeometry x="800" y="120" width="160" height="180" as="geometry"/>
        </mxCell>
        <mxCell id="18" value="+ clientSocket: Socket" style="text;html=1;" vertex="1">
          <mxGeometry x="0" y="0.25" width="100" height="100%" as="geometry"/>
        </mxCell>
        <mxCell id="19" value="+ run()" style="text;html=1;" vertex="1">
          <mxGeometry x="0" y="0.50" width="100" height="100%" as="geometry"/>
        </mxCell>

        <!-- TableSeat -->
        <mxCell id="20" value="TableSeat" style="swimlane;html=1;whiteSpace=wrap;rounded=0;whiteSpace=wrap;html=1;" vertex="1" connectable="0">
          <mxGeometry x="1000" y="20" width="160" height="240" as="geometry"/>
        </mxCell>
        <mxCell id="21" value="+ seatNumber: int" style="text;html=1;" vertex="1">
          <mxGeometry x="0" y="0.15" width="100" height="100%" as="geometry"/>
        </mxCell>
        <mxCell id="22" value="+ assignDiner(diner: Philosopher)" style="text;html=1;" vertex="1">
          <mxGeometry x="0" y="0.30" width="100" height="100%" as="geometry"/>
        </mxCell>
        
        <!-- Relações -->
        <mxCell id="23" value="" style="edgeStyle=orthogonalEdgeStyle;rounded=0;orthogonalLoop=1;jettySize=auto;html=1;exitX=0.5;exitY=0;exitDx=0;exitDy=0;entryX=0.5;entryY=1;entryDx=0;entryDy=0;exitDx=0;exitDy=0;" edge="1" parent="1" source="4" target="2">
          <mxGeometry relative="1" as="geometry"/>
        </mxCell>

        <mxCell id="24" value="" style="edgeStyle=orthogonalEdgeStyle;rounded=0;orthogonalLoop=1;jettySize=auto;html=1;exitX=0.5;exitY=0;exitDx=0;exitDy=0;entryX=0.5;entryY=1;entryDx=0;entryDy=0;exitDx=0;exitDy=0;" edge="1" parent="1" source="20" target="4">
          <mxGeometry relative="1" as="geometry"/>
        </mxCell>
      </root>
    </mxGraphModel>
  </
